<?xml version="1.0" encoding="utf-8"?>
<!-- Generator: Adobe Illustrator 22.0.1, SVG Export Plug-In . SVG Version: 6.00 Build 0)  -->
<svg version="1.1" id="Layer_1" xmlns="http://www.w3.org/2000/svg" xmlns:xlink="http://www.w3.org/1999/xlink" x="0px" y="0px"
	 viewBox="0 0 943.2 261.6" style="enable-background:new 0 0 943.2 261.6;" xml:space="preserve">
<style type="text/css">
	.st0{fill:#051E3F;}
	.st1{fill:#67C4C2;}
	.st2{fill:#017C88;}
	.st3{fill:#1C6273;}
	.st4{fill:#FFCC01;}
	.st5{fill:#FFE655;}
	.st6{fill:#FECC2E;}
	.st7{fill:#E6A500;}
</style>
<g>
	<g>
		<path class="st0" d="M389,106.2h-34.3v85.2h-24.1v-85.2h-34.3V85.5H389L389,106.2L389,106.2z"/>
		<path class="st0" d="M509.5,85.5v105.9h-23.2v-10.3c-8.7,8.1-20.5,13-34,13c-29.7,0-53.6-24.8-53.6-55.7s23.9-55.7,53.6-55.7
			c13.5,0,26.3,5.6,34,13.9V85.4L509.5,85.5L509.5,85.5z M486.2,157.7v-38.3c-7.9-11.3-18.9-15.3-30.6-15.3
			c-19.4,0-33.6,15.5-33.6,34.5c0,18.9,14.2,34.5,33.6,34.5C467.3,173,478.4,168.9,486.2,157.7z"/>
		<path class="st0" d="M660.3,175c13.7,0,23.2-4.5,23.2-12.8c0-6.3-5.2-10.8-14.2-12.4l-23.4-4.1c-16.2-2.7-31.3-10.8-31.3-30
			c0-20.5,17.8-33.1,44.2-33.1c20.5,0,44.2,7,46.4,34.7h-21.6c-1.1-11.5-11.3-16-24.8-16s-21,5-21,12.4c0,5.6,4.1,11,16.5,13.1
			l19.8,3.2c16,2.9,31.8,9.9,31.8,30.4c0,22.3-19.6,33.8-46.2,33.8c-25,0-46.4-9.9-49.1-37.9l21.6,0.2
			C634.6,169.6,644.3,175,660.3,175z"/>
		<path class="st0" d="M897.6,175c13.7,0,23.2-4.5,23.2-12.8c0-6.3-5.2-10.8-14.2-12.4l-23.4-4.1c-16.2-2.7-31.3-10.8-31.3-30
			c0-20.5,17.8-33.1,44.2-33.1c20.5,0,44.2,7,46.4,34.7h-21.6c-1.1-11.5-11.3-16-24.8-16s-21,5-21,12.4c0,5.6,4.1,11,16.5,13.1
			l19.8,3.2c16,2.9,31.8,9.9,31.8,30.4c0,22.3-19.6,33.8-46.2,33.8c-25,0-46.4-9.9-49.1-37.9l21.6,0.2
			C871.9,169.6,881.6,175,897.6,175z"/>
		<path class="st0" d="M558.4,119.1c7.9-11.3,18.9-15.3,30.6-15.3c3.1,0,8.8,0.5,8.8,0.5V82.9c-1.8-0.2-3.6-0.3-5.4-0.3
			c-13.5,0-27.7,5.9-34,14.1V85.3h-23.2v105.9h23.2L558.4,119.1L558.4,119.1z"/>
		<path class="st0" d="M777.7,194.2c-31,0-51-20.9-51-53.1V85.6l23.2-0.2l0.2,55.7c0,18.6,11.1,31,27.7,31c16.6,0,27.8-12.5,27.8-31
			V85.6l23-0.2l0.2,55.7C828.7,173.3,808.7,194.2,777.7,194.2z"/>
	</g>
</g>
<g>
	<g>
		<g>
			<path class="st1" d="M0,131c0-8.2,0.8-16.2,2.2-24h117.9L29,213.2C10.9,190.8,0,162.2,0,131z"/>
			<g>
				<path class="st2" d="M120.1,107.1v154.5c-36.8-3-69.2-21.2-91.1-48.3L120.1,107.1z"/>
			</g>
		</g>
		<g>
			<path class="st3" d="M262,131c0-8.2-0.8-16.2-2.2-24H141.9L233,213.2C251.1,190.8,262,162.2,262,131z"/>
			<g>
				<path class="st0" d="M141.9,107.1v154.5c36.8-3,69.2-21.2,91.1-48.3L141.9,107.1z"/>
			</g>
		</g>
	</g>
	<path class="st4" d="M131,0L131,0v85.3l66.9-66.9C178.3,6.7,155.4,0,131,0z"/>
	<path class="st5" d="M64.1,18.4L131,85.3V0C106.5,0,83.7,6.7,64.1,18.4z"/>
	<g>
		<path class="st6" d="M8.2,85.3H131L64.1,18.4C38.6,33.6,18.7,57.1,8.2,85.3z"/>
	</g>
	<path class="st7" d="M131,85.3h122.8c-10.5-28.2-30.4-51.7-55.9-66.9L131,85.3z"/>
</g>
</svg>
